<svg fill="none" height="40" viewBox="0 0 40 40" width="40" xmlns="http://www.w3.org/2000/svg"><g stroke="#000" stroke-linecap="round" stroke-linejoin="round" stroke-width="2"><path d="m9.99991 9.99984c0-1.84095 1.49239-3.33334 3.33329-3.33334h5.8708c1.3468 0 2.5613.81046 3.0781 2.05412l.1975.47509c.5168 1.24369 1.7313 2.05409 3.0781 2.05409h7.7755c1.841 0 3.3334 1.4924 3.3334 3.3334v12.0833c0 1.8409-1.4924 3.3333-3.3334 3.3333h-20c-1.8409 0-3.33329-1.4924-3.33329-3.3333z"/><path d="m9.99991 11.6665h-1.66667c-1.84095 0-3.33333 1.4924-3.33333 3.3333v16.6667c0 1.8409 1.49238 3.3333 3.33333 3.3333h19.99996c1.841 0 3.3334-1.4924 3.3334-3.3333v-1.6667"/></g></svg>