<?xml version="1.0" encoding="UTF-8"?>
<svg version="1.1" xmlns="http://www.w3.org/2000/svg" width="1500" height="1500">
<path d="M0 0 C495 0 990 0 1500 0 C1500 495 1500 990 1500 1500 C1005 1500 510 1500 0 1500 C0 1005 0 510 0 0 Z " fill="#000000" transform="translate(0,0)"/>
<path d="M0 0 C1.28170721 -0.0163601 1.28170721 -0.0163601 2.58930749 -0.03305072 C3.99793776 -0.02812837 3.99793776 -0.02812837 5.43502522 -0.02310658 C6.43241429 -0.03131438 7.42980337 -0.03952218 8.45741636 -0.0479787 C11.81529767 -0.07174122 15.17284486 -0.07388175 18.53080463 -0.07603931 C20.9320357 -0.08828403 23.33326088 -0.10173535 25.73447895 -0.11630726 C32.26975544 -0.15143856 38.80495555 -0.16668788 45.34030414 -0.17614436 C49.42176831 -0.18216342 53.50321118 -0.19292306 57.58466244 -0.20464993 C68.88674719 -0.23641294 80.18881298 -0.26311313 91.49094391 -0.26940155 C92.57611425 -0.27001225 92.57611425 -0.27001225 93.68320723 -0.2706353 C95.14980368 -0.27144299 96.61640012 -0.27224871 98.08299657 -0.27305248 C99.17502045 -0.27366084 99.17502045 -0.27366084 100.28910542 -0.2742815 C101.38246386 -0.27488447 101.38246386 -0.27488447 102.49791036 -0.27549962 C114.30363298 -0.28298612 126.1088988 -0.32744483 137.91445633 -0.38813891 C150.03738518 -0.4499636 162.16008656 -0.48176161 174.28317624 -0.48322898 C181.0889552 -0.48472946 187.89417135 -0.49894033 194.69980145 -0.54604626 C201.10297001 -0.59018096 207.50533253 -0.59309686 213.90861225 -0.56825161 C216.25800194 -0.56566281 218.60745267 -0.57673976 220.95670223 -0.60252857 C224.1670882 -0.63565098 227.37360601 -0.61932449 230.583951 -0.59073353 C231.51188424 -0.6119899 232.43981748 -0.63324627 233.39586991 -0.65514678 C238.79257697 -0.54454834 241.43462546 0.44210754 245.3194294 4.28002739 C246.51522842 5.62734523 247.68782919 6.99592171 248.82694721 8.39148998 C249.60683002 9.30414623 250.38671284 10.21680248 251.19022846 11.15711498 C252.15509174 12.38688061 252.15509174 12.38688061 253.13944721 13.64148998 C256.41813624 17.72854544 259.81972853 21.62446555 263.38944721 25.45398998 C267.41235554 29.77522479 271.15549832 34.2403626 274.79569721 38.88758373 C277.86416748 42.67006343 281.16500369 46.22818973 284.45975971 49.81336498 C289.02948136 54.79028955 293.4229694 59.90543431 297.77543354 65.07288647 C302.3593409 70.51505065 307.01009191 75.87456394 311.79179096 81.14539623 C317.46335613 87.40480117 322.93266184 93.84051653 328.42387104 100.25770092 C331.56714574 103.9290379 334.73258171 107.57882505 337.92460346 111.20789623 C341.09180611 114.8433506 344.2154054 118.51624082 347.34769917 122.18177319 C350.20083957 125.51438789 353.08072951 128.8166959 356.01444721 132.07898998 C358.82412428 135.21241585 361.49784671 138.42765862 364.13944721 141.70398998 C368.32801837 146.86917099 372.7603701 151.75388299 377.27616596 156.62977123 C383.16812809 163.00897066 388.76603715 169.6459389 394.41117573 176.24280834 C397.62756542 179.99974217 400.860295 183.74077778 404.13163471 187.45008373 C404.69108784 188.0907478 405.25054096 188.73141186 405.82694721 189.39148998 C406.30594512 189.82578756 406.78494303 190.26008514 407.27845603 190.70754325 C411.7201663 195.08959696 412.53165445 198.50108763 412.62474555 204.65256703 C412.6106791 205.72601396 412.59661265 206.79946089 412.58211994 207.90543652 C412.59077432 209.05945143 412.5994287 210.21346634 412.60834533 211.4024514 C412.62616072 214.59271058 412.61717861 217.78157633 412.59663618 220.9717772 C412.58097437 224.41696905 412.59993841 227.86199709 412.61443806 231.30716991 C412.63724513 238.0504794 412.62779937 244.79337397 412.60693719 251.53667511 C412.59064535 257.01656864 412.58645552 262.49634904 412.59090328 267.976264 C412.59153396 268.75652383 412.59216463 269.53678365 412.59281442 270.34068771 C412.59416048 271.92580235 412.59554006 273.51091696 412.59695277 275.09603153 C412.60888488 289.95343167 412.58483428 304.81060439 412.54793469 319.66795276 C412.51703026 332.41718758 412.51467717 345.1661608 412.53373432 357.91541576 C412.55584293 372.72313911 412.56199485 387.53071584 412.5414117 402.3384465 C412.53924876 403.91708014 412.53709967 405.49571381 412.53496456 407.0743475 C412.5338982 407.85105812 412.53283183 408.62776874 412.53173315 409.42801604 C412.52526252 414.90255318 412.53003063 420.37701489 412.53898907 425.85154629 C412.54952097 432.52130426 412.5420357 439.19075535 412.51153328 445.8604566 C412.49639807 449.26372931 412.48924888 452.66651746 412.5037241 456.06980419 C412.51510141 459.75754793 412.49584744 463.44387989 412.46859455 467.13151073 C412.47906604 468.20941911 412.48953753 469.28732748 412.50032634 470.39789975 C412.39990939 477.66295664 412.39990939 477.66295664 409.42502785 481.44558048 C408.56766124 482.08773062 407.71029463 482.72988075 406.82694721 483.39148998 C396.12304864 494.98422819 385.93799054 507.05134841 375.70194721 519.05555248 C371.2382716 524.28465216 366.76714125 529.49334705 362.13944721 534.57898998 C359.12880243 537.89232078 356.26129543 541.28090927 353.45194721 544.76648998 C349.28731352 549.91403547 344.8738958 554.77501386 340.37772846 559.62977123 C331.86765504 568.84358732 323.83905755 578.51284834 315.70194721 588.05555248 C311.2382716 593.28465216 306.76714125 598.49334705 302.13944721 603.57898998 C299.12880243 606.89232078 296.26129543 610.28090927 293.45194721 613.76648998 C289.28731352 618.91403547 284.8738958 623.77501386 280.37772846 628.62977123 C276.15361449 633.20319938 272.09262473 637.90819679 268.04960346 642.64148998 C267.01710538 643.84986946 265.98455175 645.05820148 264.95194721 646.26648998 C264.43213276 646.87516918 263.91231831 647.48384838 263.3767519 648.1109724 C259.68932016 652.41701176 255.95259617 656.66699575 252.05078888 660.78151321 C249.75529296 663.30193815 249.75529296 663.30193815 248.25695229 666.2159977 C245.72437256 670.40949302 243.40991599 673.63730057 238.62589717 675.03416467 C231.63914237 676.1363893 224.55736724 675.92110501 217.50541401 675.86243725 C215.10975274 675.88226638 212.71412598 675.90672366 210.31855488 675.93545055 C204.4979243 675.99181422 198.67897696 675.99654379 192.85814508 675.97498656 C188.12385815 675.95830609 183.39000081 675.96209952 178.65572262 675.98027897 C177.9804432 675.9828307 177.30516378 675.98538243 176.60942135 675.98801149 C175.23731882 675.99324571 173.8652164 675.99850918 172.49311409 676.00380158 C159.64063123 676.05063278 146.7889765 676.02785138 133.93653528 675.98264521 C122.19801674 675.94334008 110.46148456 675.98548745 98.72323623 676.06711973 C86.64962739 676.15045188 74.57693594 676.18180852 62.50305015 676.1561026 C61.13523996 676.1533537 59.76742961 676.15068423 58.3996191 676.14809513 C57.72675552 676.14682024 57.05389194 676.14554534 56.36063856 676.14423181 C51.63793592 676.13862055 46.9161232 676.16645037 42.19362164 676.20792866 C35.82376877 676.2602317 29.45762286 676.24411571 23.08795261 676.17622471 C20.75640532 676.16255648 18.42457579 676.17252345 16.09326458 676.2084074 C-2.41161374 676.47083721 -2.41161374 676.47083721 -8.16680241 671.31066227 C-10.84635809 668.43789139 -13.05500921 665.36143012 -15.12509286 662.02895629 C-16.52749096 659.83767056 -18.19267915 657.94369313 -19.94258404 656.02430248 C-20.45442242 655.43383129 -20.9662608 654.8433601 -21.49360943 654.23499584 C-22.23212139 653.38433544 -22.23212139 653.38433544 -22.98555279 652.51648998 C-23.53267925 651.88557446 -24.07980572 651.25465893 -24.64351177 650.60462475 C-27.33255927 647.50539035 -30.02752644 644.41167046 -32.73555279 641.32898998 C-35.34083798 638.36168005 -37.9088532 635.36390083 -40.47285748 632.3609724 C-45.3013667 626.70700663 -50.1800155 621.11260077 -55.17305279 615.60242748 C-60.82598981 609.35328226 -66.28338589 602.93441073 -71.76338482 596.53406811 C-76.95016352 590.47875248 -82.18412124 584.47839146 -87.54805279 578.57898998 C-90.67728105 575.11618916 -93.67805628 571.58469995 -96.61055279 567.95398998 C-100.47130416 563.18008698 -104.54742354 558.65760571 -108.70430279 554.14148998 C-111.90186575 550.57964769 -114.88693621 546.86583165 -117.89180279 543.14148998 C-121.03735238 539.34959459 -124.3795084 535.75329625 -127.71602154 532.12977123 C-130.06681411 529.50988952 -132.28555738 526.82596779 -134.48555279 524.07898998 C-138.04091488 519.66782392 -141.79251639 515.51337273 -145.67305279 511.39148998 C-150.33236235 506.442399 -154.72356067 501.36931594 -158.97774029 496.06336498 C-165.48526618 487.82309582 -165.48526618 487.82309582 -173.27972031 480.93498516 C-176.37505375 476.77672677 -175.74752373 472.33278866 -175.72809124 467.28541088 C-175.73927016 466.13889821 -175.75044909 464.99238553 -175.76196676 463.81113005 C-175.78874546 460.62794363 -175.79752833 457.44529357 -175.79856479 454.26201296 C-175.80391621 450.82887523 -175.83207854 447.39591142 -175.85702801 443.9628706 C-175.90704581 436.45429086 -175.92701594 428.94581045 -175.94087577 421.43708897 C-175.94966085 416.74601391 -175.96465922 412.0549718 -175.98088551 407.36391735 C-176.02484357 394.36929655 -176.06184024 381.37470438 -176.07151222 368.38000774 C-176.07213892 367.5483006 -176.07276563 366.71659346 -176.07341132 365.85968307 C-176.07466045 364.17366537 -176.0759082 362.48764766 -176.07715457 360.80162996 C-176.07778292 359.9647115 -176.07841126 359.12779304 -176.07905865 358.26551342 C-176.07968206 357.42756979 -176.08030546 356.58962615 -176.08094776 355.72629029 C-176.09237533 342.16107282 -176.15425974 328.59659993 -176.23827558 315.03165644 C-176.32389031 301.09612455 -176.3680766 287.16096379 -176.37070757 273.22516394 C-176.37312187 265.40412913 -176.39298553 257.58402514 -176.45834446 249.76323986 C-176.51380448 243.10033011 -176.53109886 236.43866162 -176.49962073 229.7755726 C-176.48468379 226.37823023 -176.49314571 222.98536443 -176.53814602 219.58798885 C-176.81855547 197.06854289 -176.81855547 197.06854289 -171.36597115 190.5346446 C-169.12506148 188.28650828 -166.6638643 186.35452261 -164.17305279 184.39148998 C-162.62816886 182.59581608 -161.12077965 180.76637613 -159.67305279 178.89148998 C-156.47373341 174.91519304 -153.14718239 171.12482925 -149.67305279 167.39148998 C-145.36628127 162.76249379 -141.32903843 157.97682038 -137.36055279 153.05164623 C-134.44061515 149.50079349 -131.36701147 146.10456311 -128.27461529 142.70398998 C-125.19015337 139.30993523 -122.1796514 135.85449825 -119.17305279 132.39148998 C-118.49266949 131.60862621 -118.49266949 131.60862621 -117.79854107 130.80994701 C-111.30704421 123.33922788 -104.84542046 115.84439303 -98.41914654 108.31751537 C-94.79814487 104.08920143 -91.08167926 99.95654264 -87.33320904 95.84070873 C-84.19257568 92.27980979 -81.24999097 88.56700774 -78.31367779 84.83680248 C-76.17305279 82.39148998 -76.17305279 82.39148998 -73.59492779 80.38367748 C-70.99079909 78.24157162 -69.82836673 76.29947394 -68.17305279 73.39148998 C-66.83532305 71.81737427 -65.45737801 70.2768421 -64.04805279 68.76648998 C-60.8594142 65.29030911 -57.81049339 61.75969912 -54.86055279 58.07898998 C-50.9711412 53.26643708 -46.84562029 48.74550478 -42.61958599 44.23255444 C-38.67638968 39.99787444 -35.01024073 35.58827569 -31.38789654 31.07508373 C-28.26636618 27.29291203 -24.93316133 23.71961452 -21.60664654 20.11805248 C-18.47705813 16.61170784 -15.60717307 12.93480831 -12.76680279 9.19227123 C-12.24086529 8.59801342 -11.71492779 8.00375561 -11.17305279 7.39148998 C-10.51305279 7.39148998 -9.85305279 7.39148998 -9.17305279 7.39148998 C-8.77086529 6.49430248 -8.77086529 6.49430248 -8.36055279 5.57898998 C-6.22557244 1.64613144 -4.55074685 0.01969562 0 0 Z " fill="#FEFEFE" transform="translate(629.1730527877808,412.608510017395)"/>
<path d="M0 0 C1.11582962 -0.0099852 2.23165924 -0.0199704 3.38130188 -0.03025818 C5.73715524 -0.04540575 8.0930726 -0.05248502 10.44897461 -0.05200195 C14.02242342 -0.05854185 17.59306029 -0.11300493 21.16601562 -0.16992188 C44.3048317 -0.34357932 44.3048317 -0.34357932 52.36328125 6.50390625 C57.13458676 12.11034667 59.49008154 16.83918145 59.48353577 24.25553894 C59.48559776 26.05393974 59.48559776 26.05393974 59.48770142 27.88867188 C59.48410614 29.20569092 59.48051086 30.52270996 59.47680664 31.87963867 C59.4765246 33.27907815 59.47668284 34.67851777 59.47724915 36.07795715 C59.47753646 39.87932409 59.4716504 43.68065957 59.46467519 47.48201919 C59.45843065 51.45385692 59.45783698 55.42569535 59.45664978 59.39753723 C59.45353972 66.91979574 59.44533069 74.44203975 59.43530029 81.96429187 C59.42412908 90.52767898 59.41862616 99.09106678 59.41360486 107.65445936 C59.40314782 125.27094988 59.38555465 142.8874269 59.36328125 160.50390625 C60.08073957 160.49929729 60.7981979 160.49468832 61.53739738 160.48993969 C79.02404065 160.37934316 96.51059467 160.29669285 113.99751091 160.24484539 C122.45419784 160.21910353 130.91065079 160.18403034 139.3671875 160.12670898 C146.7410432 160.0767504 154.11472937 160.04458604 161.48874962 160.03346378 C165.39049853 160.02696595 169.29176261 160.0117794 173.19335556 159.97525597 C176.872283 159.94109878 180.55052994 159.93089241 184.22960091 159.93836784 C186.21016791 159.93635501 188.19066227 159.90956363 190.17103577 159.88180542 C197.8964027 159.92604928 203.98570425 160.91302104 210.36328125 165.50390625 C215.34207636 170.76893697 218.57883325 176.21114352 218.66967773 183.59448242 C218.68566513 184.5828862 218.70165253 185.57128998 218.71812439 186.58964539 C218.72616844 188.17722404 218.72616844 188.17722404 218.734375 189.796875 C218.74340347 190.89808182 218.75243195 191.99928864 218.76173401 193.13386536 C218.77622753 195.46299527 218.78512101 197.79216582 218.78881836 200.12133789 C218.80068164 203.66168051 218.84985127 207.20026103 218.90039062 210.74023438 C218.90985941 213.00910613 218.91709226 215.27798853 218.921875 217.546875 C218.94140732 218.59513962 218.96093964 219.64340424 218.98106384 220.72343445 C218.93280332 228.69705575 217.10303785 235.42214769 211.60765076 241.42008972 C203.793082 248.76148559 196.00676979 248.93092225 185.71704102 248.84448242 C184.33671589 248.84363523 182.95638941 248.84411309 181.57606506 248.84580994 C177.8450739 248.84666773 174.11437437 248.82907728 170.38345075 248.80808806 C166.47838157 248.78928504 162.57330509 248.78756797 158.66819763 248.78401184 C151.28059577 248.77470199 143.89312771 248.75010265 136.50558466 248.71996337 C128.09205839 248.68638627 119.6785256 248.66992505 111.26494896 248.65487707 C93.96431578 248.62355208 76.66381268 248.57081233 59.36328125 248.50390625 C59.36789021 249.22136457 59.37249918 249.9388229 59.37724781 250.67802238 C59.48784434 268.16466565 59.57049465 285.65121967 59.62234211 303.13813591 C59.64808397 311.59482284 59.68315716 320.05127579 59.74047852 328.5078125 C59.7904371 335.8816682 59.82260146 343.25535437 59.83372372 350.62937462 C59.84022155 354.53112353 59.8554081 358.43238761 59.89193153 362.33398056 C59.92608872 366.012908 59.93629509 369.69115494 59.92881966 373.37022591 C59.93083249 375.35079291 59.95762387 377.33128727 59.98538208 379.31166077 C59.93621861 387.89603482 58.61052081 395.04077328 52.51979542 401.44109917 C47.91448234 405.62792672 44.11841213 407.74171548 37.80371094 407.81030273 C36.68865173 407.82629013 35.57359253 407.84227753 34.42474365 407.85874939 C32.62314789 407.86679344 32.62314789 407.86679344 30.78515625 407.875 C29.54461487 407.88402847 28.30407349 407.89305695 27.02593994 407.90235901 C24.3999676 407.91686937 21.77395905 407.92575018 19.14794922 407.92944336 C16.46492998 407.93374841 13.78287152 407.95457717 11.10009766 407.9909668 C7.22398715 408.03986542 3.34904361 408.05523738 -0.52734375 408.0625 C-2.31679413 408.09179848 -2.31679413 408.09179848 -4.14239502 408.12168884 C-12.20559924 408.07823104 -17.24615024 406.68130475 -23.11602783 401.09642029 C-30.17316714 393.32825231 -30.06064387 385.75992202 -29.97729492 375.76586914 C-29.97644774 374.37569192 -29.97692556 372.98551336 -29.97862244 371.59533691 C-29.97948028 367.83748798 -29.961889 364.07992854 -29.94090056 360.32214665 C-29.9220984 356.38905015 -29.92038054 352.45594641 -29.91682434 348.52281189 C-29.90751424 341.08208654 -29.88291456 333.64149402 -29.85277587 326.20082706 C-29.81919955 317.72684231 -29.80273774 309.25285109 -29.78768957 300.77881634 C-29.75636402 283.35376958 -29.70362377 265.92885198 -29.63671875 248.50390625 C-30.72340221 248.50943701 -30.72340221 248.50943701 -31.83203888 248.5150795 C-49.47656186 248.60349686 -67.12102842 248.66964807 -84.76572418 248.71115494 C-93.29864977 248.73176195 -101.83142728 248.75984684 -110.36425781 248.80566406 C-117.80328329 248.84558897 -125.24220151 248.87135259 -132.68133116 248.88026023 C-136.6187083 248.88546545 -140.55577864 248.89766042 -144.49305725 248.92682648 C-148.2031026 248.95408521 -151.91271634 248.96233036 -155.62285233 248.95633698 C-157.62524181 248.95795284 -159.62758485 248.97942073 -161.62985229 249.00158691 C-169.87785169 248.96397483 -175.53871282 248.15927042 -181.87890625 242.50390625 C-182.41773438 241.84390625 -182.9565625 241.18390625 -183.51171875 240.50390625 C-184.06601562 239.84390625 -184.6203125 239.18390625 -185.19140625 238.50390625 C-188.00108778 234.61591451 -188.88912406 231.84496774 -188.92724609 227.02026367 C-188.94638565 225.37286446 -188.94638565 225.37286446 -188.96591187 223.69218445 C-188.96813751 222.50985733 -188.97036316 221.32753021 -188.97265625 220.109375 C-188.97931305 218.88865799 -188.98596985 217.66794098 -188.99282837 216.41023254 C-189.00295449 213.82713325 -189.0076454 211.2440078 -189.00732422 208.66088867 C-189.01169059 204.71684399 -189.04799458 200.77392432 -189.0859375 196.83007812 C-189.09180702 194.31901424 -189.09577551 191.80794504 -189.09765625 189.296875 C-189.11202728 188.12062057 -189.12639832 186.94436615 -189.14120483 185.73246765 C-189.09726664 177.82262203 -188.11111416 173.29603961 -182.671875 167.359375 C-182.02089844 166.80894531 -181.36992188 166.25851562 -180.69921875 165.69140625 C-179.72662109 164.84642578 -179.72662109 164.84642578 -178.734375 163.984375 C-174.49078991 160.98936802 -170.78830842 160.25430132 -165.64457703 160.26339722 C-164.44289383 160.26064789 -163.24121063 160.25789856 -162.00311279 160.25506592 C-160.03837006 160.26585175 -160.03837006 160.26585175 -158.03393555 160.27685547 C-156.63420113 160.2774199 -155.23446613 160.2771024 -153.83473206 160.27597046 C-150.04170862 160.27539719 -146.24881195 160.28714737 -142.45581794 160.30111837 C-138.48933542 160.31362995 -134.52284992 160.31479657 -130.55635071 160.31716919 C-123.04830416 160.3233827 -115.54031593 160.33979178 -108.03229505 160.35986817 C-99.48337777 160.38223118 -90.93445769 160.39322161 -82.38551843 160.40325904 C-64.80255149 160.42415811 -47.21964129 160.45933159 -29.63671875 160.50390625 C-29.64224951 159.41722279 -29.64224951 159.41722279 -29.647892 158.30858612 C-29.73630936 140.66406314 -29.80246057 123.01959658 -29.84396744 105.37490082 C-29.86457445 96.84197523 -29.89265934 88.30919772 -29.93847656 79.77636719 C-29.97840147 72.33734171 -30.00416509 64.89842349 -30.01307273 57.45929384 C-30.01827795 53.5219167 -30.03047292 49.58484636 -30.05963898 45.64756775 C-30.08689771 41.9375224 -30.09514286 38.22790866 -30.08914948 34.51777267 C-30.09076534 32.51538319 -30.11223323 30.51304015 -30.13439941 28.51077271 C-30.09649198 20.19800621 -29.05805393 15.00986051 -23.9609375 8.296875 C-23.42082031 7.76707031 -22.88070312 7.23726562 -22.32421875 6.69140625 C-21.52564453 5.87736328 -21.52564453 5.87736328 -20.7109375 5.046875 C-14.1571662 0.17165906 -7.91319628 0.02483679 0 0 Z " fill="#010101" transform="translate(730.63671875,545.49609375)"/>
<path d="M0 0 C1.28910759 -0.00895972 1.28910759 -0.00895972 2.60425776 -0.01810044 C3.54880157 -0.00936192 4.49334538 -0.00062339 5.46651173 0.00837994 C6.46954533 0.00581666 7.47257893 0.00325339 8.50600749 0.00061244 C11.88263655 -0.00434726 15.25882307 0.01220373 18.63541126 0.02856731 C21.04961607 0.02941311 23.46382165 0.02893937 25.87802601 0.0272398 C31.08365857 0.02655562 36.28919019 0.03509026 41.49479198 0.05195332 C49.02123747 0.07631868 56.5476284 0.08414605 64.07410906 0.08791729 C76.28484095 0.09448565 88.49551277 0.11445723 100.70621204 0.14282513 C112.56883919 0.17035575 124.43145003 0.1915942 136.29410267 0.20434856 C137.02512841 0.20513673 137.75615416 0.20592491 138.5093322 0.20673696 C142.17661765 0.21065203 145.84390322 0.21444316 149.51118886 0.21817267 C179.94236916 0.24928056 210.37347661 0.30234957 240.80460072 0.36914349 C240.80460072 0.69914349 240.80460072 1.02914349 240.80460072 1.36914349 C239.5605399 1.36692287 238.31647909 1.36470226 237.03471947 1.36241436 C207.48768402 1.31145917 177.94093311 1.30179069 148.393897 1.34280312 C144.7553266 1.34781761 141.11675583 1.35248448 137.4781847 1.35693645 C136.39164681 1.35827465 136.39164681 1.35827465 135.28315865 1.35963988 C123.56211905 1.37324718 111.84127536 1.35870903 100.12026174 1.33372653 C88.088874 1.3087106 76.05777413 1.31404035 64.02640527 1.34740257 C57.27032222 1.3652698 50.5148313 1.36922204 43.75878048 1.33810711 C37.39815565 1.31018939 31.03868177 1.31973927 24.67812061 1.35788059 C22.34530792 1.36529191 20.01240546 1.35907802 17.6796751 1.33812428 C3.8247495 0.64601184 3.8247495 0.64601184 -8.15342236 6.43164349 C-9.99904614 8.51185299 -9.99904614 8.51185299 -11.19539928 10.36914349 C-11.19539928 9.37914349 -11.19539928 8.38914349 -11.19539928 7.36914349 C-10.53539928 7.36914349 -9.87539928 7.36914349 -9.19539928 7.36914349 C-8.92727428 6.77101849 -8.65914928 6.17289349 -8.38289928 5.55664349 C-6.23938803 1.60807013 -4.56960867 -0.00700502 0 0 Z " fill="#EAEAEA" transform="translate(629.1953992843628,412.63085651397705)"/>
<path d="M0 0 C-1.38188453 3.21043882 -2.92421903 5.04936365 -5.625 7.25 C-6.57246094 8.03117187 -6.57246094 8.03117187 -7.5390625 8.828125 C-8.02117188 9.21484375 -8.50328125 9.6015625 -9 10 C-9 9.01 -9 8.02 -9 7 C-8.34 7 -7.68 7 -7 7 C-6.731875 6.401875 -6.46375 5.80375 -6.1875 5.1875 C-3.37142857 0 -3.37142857 0 0 0 Z " fill="#C3C3C3" transform="translate(627,413)"/>
</svg>
